HIERARCHY
ROOT Hips
{
  OFFSET 72.101 93.8116 19.2637
  CHANNELS 6 Xposition Yposition Zposition Zrotation Xrotation Yrotation
  JOINT spine
  {
    OFFSET 0 7.80058 0.448573
    CHANNELS 3 Zrotation Xrotation Yrotation
    JOINT spine1
    {
      OFFSET 0 10.1364 0
      CHANNELS 3 Zrotation Xrotation Yrotation
      JOINT spine2
      {
        OFFSET 0 9.71251 0
        CHANNELS 3 Zrotation Xrotation Yrotation
        JOINT Neck
        {
          OFFSET 0 24.9361 1.18887
          CHANNELS 3 Zrotation Xrotation Yrotation
          JOINT Head
          {
            OFFSET 0 7.53384 0
            CHANNELS 3 Zrotation Xrotation Yrotation
            End Site
            {
              OFFSET 0 18.2361 -6.01402
            }
          }
        }
        JOINT RightShoulder
        {
          OFFSET -4.08965 10.4888 -0.569457
          CHANNELS 3 Zrotation Xrotation Yrotation
          JOINT RightArm
          {
            OFFSET 0 13.757 0
            CHANNELS 3 Zrotation Xrotation Yrotation
            JOINT RightArmRoll
            {
              OFFSET 0 6.94478 0
              CHANNELS 3 Zrotation Xrotation Yrotation
              JOINT RightForeArm
              {
                OFFSET 0 20.2277 0
                CHANNELS 3 Zrotation Xrotation Yrotation
                JOINT RightForeArmRoll
                {
                  OFFSET 0 7.79312 0
                  CHANNELS 3 Zrotation Xrotation Yrotation
                  JOINT RightHand
                  {
                    OFFSET 0 15.6391 0
                    CHANNELS 3 Zrotation Xrotation Yrotation
                    End Site
                    {
                      OFFSET 0 0 0
                    }
                  }
                }
              }
            }
          }
        }
        JOINT LeftShoulder
        {
          OFFSET 4.08965 10.4888 -0.569457
          CHANNELS 3 Zrotation Xrotation Yrotation
          JOINT LeftArm
          {
            OFFSET 0 13.757 0
            CHANNELS 3 Zrotation Xrotation Yrotation
            JOINT LeftArmRoll
            {
              OFFSET 0 6.94478 0
              CHANNELS 3 Zrotation Xrotation Yrotation
              JOINT LeftForeArm
              {
                OFFSET 0 20.2277 0
                CHANNELS 3 Zrotation Xrotation Yrotation
                JOINT LeftForeArmRoll
                {
                  OFFSET 0 7.79312 0
                  CHANNELS 3 Zrotation Xrotation Yrotation
                  JOINT LeftHand
                  {
                    OFFSET 0 15.6391 0
                    CHANNELS 3 Zrotation Xrotation Yrotation
                    End Site
                    {
                      OFFSET 0 0 0
                    }
                  }
                }
              }
            }
          }
        }
      }
    }
  }
  JOINT RightUpLeg
  {
    OFFSET -6.91415 -1.26788 -1.06358
    CHANNELS 3 Zrotation Xrotation Yrotation
    JOINT RightUpLegRoll
    {
      OFFSET 0 18.3378 0
      CHANNELS 3 Zrotation Xrotation Yrotation
      JOINT RightLeg
      {
        OFFSET 0 -22.7085 0
        CHANNELS 3 Zrotation Xrotation Yrotation
        JOINT RightLegRoll
        {
          OFFSET 0 22.7828 0
          CHANNELS 3 Zrotation Xrotation Yrotation
          JOINT RightFoot
          {
            OFFSET 0 18.9629 0
            CHANNELS 3 Zrotation Xrotation Yrotation
            JOINT RightToeBase
            {
              OFFSET 0 15.852 0
              CHANNELS 3 Zrotation Xrotation Yrotation
              End Site
              {
                OFFSET 0.00671906 7.67701 -0.884893
              }
            }
          }
        }
      }
    }
  }
  JOINT LeftUpLeg
  {
    OFFSET 6.91415 -1.26788 -1.06358
    CHANNELS 3 Zrotation Xrotation Yrotation
    JOINT LeftUpLegRoll
    {
      OFFSET 0 18.3379 0
      CHANNELS 3 Zrotation Xrotation Yrotation
      JOINT LeftLeg
      {
        OFFSET 0 22.7084 0
        CHANNELS 3 Zrotation Xrotation Yrotation
        JOINT LeftLegRoll
        {
          OFFSET 0 22.9934 0
          CHANNELS 3 Zrotation Xrotation Yrotation
          JOINT LeftFoot
          {
            OFFSET 0 18.7522 0
            CHANNELS 3 Zrotation Xrotation Yrotation
            JOINT LeftToeBase
            {
              OFFSET 0 15.852 0
              CHANNELS 3 Zrotation Xrotation Yrotation
              End Site
              {
                OFFSET -0.030112 7.677 -0.884893
              }
            }
          }
        }
      }
    }
  }
}
MOTION
Frames: 11
Frame Time: 0.00208333
57.4127 91.9732 17.7731 2.31418 -0.975622 47.1696 -0.669521 -2.78325 0.487579 -1.31754 -1.56986 1.02987 -1.32973 0.0748424 1.05184 0.960349 25.8783 10.9867 -5.10335 -9.20205 10.3519 56.4908 -10.0788 -6.26699 47.2336 59.0207 73.4048 -1.69916e-007 -2.6281e-005 3.16792e-009 170.011 47.6808 -155.805 -5.92635e-006 -7.81362e-006 -3.00368 8.02968 -4.95143 0.697493 -55.6546 -3.56896 1.95214 -81.5234 33.6716 -7.01298 -5.1684e-015 -1.70955e-014 -6.36111e-015 -7.98357 35.3609 4.36175 2.44588e-006 1.71546e-006 3 -8.03001 -4.95142 -0.69765 176.209 -7.97938 2.32498 180 7.01492e-015 178.707 179.389 20.7856 179.698 -1.26223e-006 2.81689e-007 1.33631 -46.9044 81.2621 49.2998 8.14367 27.7771 -0.146249 -173.024 20.0901 1.85453 4.54188e-006 -4.6773e-006 -0.813499 -6.54712 -17.3918 -0.772723 -4.23865e-006 -5.89771e-006 -0.0957954 17.3563 70.396 -21.5261 -8.13649 25.2327 3.48773 
57.5427 91.9952 17.7887 2.35602 -0.913627 47.3819 -0.679942 -2.78767 0.496706 -1.33792 -1.57891 1.04895 -1.35034 0.0657797 1.07125 0.430852 25.7373 11.0221 -4.55742 -9.20156 10.2922 56.0676 -10.0382 -6.237 47.479 59.764 73.2177 -1.69916e-007 -2.6281e-005 3.16789e-009 169.995 47.731 -155.905 -5.92635e-006 -7.81362e-006 -3.00368 8.02968 -4.95143 0.697493 -56.2204 -3.537 1.97659 -81.4792 33.5733 -6.86145 -3.97569e-016 1.19271e-015 -6.36111e-015 -8.11234 35.5709 4.44186 2.44588e-006 1.71546e-006 3 -8.03001 -4.95142 -0.69765 176.167 -8.06318 2.31882 180 7.01492e-015 178.706 179.457 20.8018 179.684 -1.26223e-006 2.81689e-007 1.34626 -46.5981 81.2201 49.0022 8.14038 27.8729 -0.0761684 -173.184 20.0992 1.94679 4.54188e-006 -4.6773e-006 -0.821103 -6.57438 -17.4421 -0.782965 -4.23865e-006 -5.89771e-006 -0.0962696 17.5143 70.4681 -21.6002 -8.13649 25.2327 3.48773 
57.66 91.9979 17.7988 2.39725 -0.85189 47.595 -0.69005 -2.7913 0.505354 -1.35771 -1.58637 1.06705 -1.37034 0.058313 1.08967 -0.111849 25.581 11.0633 -4.001 -9.19261 10.2364 55.6386 -9.99582 -6.20518 47.7114 60.5109 73.1305 -1.69916e-007 -2.6281e-005 3.16789e-009 169.96 47.7475 -155.93 -5.92635e-006 -7.81362e-006 -3.00368 8.02968 -4.95143 0.697493 -56.7851 -3.51059 2.00489 -81.4367 33.4737 -6.7077 3.97569e-016 -1.31198e-014 -0 -8.24146 35.7818 4.52274 2.44588e-006 1.71546e-006 3 -8.03001 -4.95142 -0.69765 176.12 -8.14461 2.31374 180 7.01492e-015 178.704 179.53 20.823 179.669 -1.26223e-006 2.81689e-007 1.35626 -46.2316 81.1681 48.6424 8.1366 27.981 -0.00176948 -173.347 20.0949 2.04345 4.54188e-006 -4.6773e-006 -0.828728 -6.59755 -17.4694 -0.791386 -4.23865e-006 -5.89771e-006 -0.0968038 17.6654 70.5339 -21.669 -8.13649 25.2327 3.48773 
57.7795 92.0066 17.8152 2.43792 -0.790571 47.8099 -0.699978 -2.79442 0.513532 -1.37717 -1.59281 1.08419 -1.39 0.0518591 1.10714 -0.667089 25.4153 11.1126 -3.43397 -9.17833 10.1857 55.2045 -9.95012 -6.1714 47.9173 61.2619 73.1588 -1.69916e-007 -2.6281e-005 3.16789e-009 169.906 47.7326 -155.88 -5.92635e-006 -7.81362e-006 -3.00368 8.02968 -4.95143 0.697493 -57.3534 -3.48819 2.03668 -81.3907 33.3731 -6.55256 -2.38542e-015 1.19271e-015 -9.54166e-015 -8.37206 35.992 4.60511 2.44588e-006 1.71546e-006 3 -8.03001 -4.95142 -0.69765 176.069 -8.22475 2.30771 180 7.01491e-015 178.703 179.608 20.8482 179.652 -1.26223e-006 2.81689e-007 1.36646 -45.8127 81.1067 48.2284 8.13225 28.1006 0.0769822 -173.51 20.0795 2.14358 4.54188e-006 -4.6773e-006 -0.836352 -6.61791 -17.4782 -0.798477 -4.23865e-006 -5.89771e-006 -0.0973366 17.8124 70.5953 -21.7345 -8.13649 25.2327 3.48773 
57.9167 92.0149 17.8044 2.47801 -0.729528 48.0262 -0.709725 -2.797 0.521308 -1.3963 -1.59816 1.10051 -1.40931 0.0465007 1.12378 -1.23375 25.2395 11.1683 -2.85711 -9.15827 10.1393 54.7657 -9.9013 -6.13561 48.0909 62.0164 73.2986 -1.69916e-007 -2.6281e-005 3.16788e-009 169.835 47.691 -155.765 -5.92635e-006 -7.81362e-006 -3.00368 8.02968 -4.95143 0.697493 -57.9241 -3.46958 2.07164 -81.3421 33.2718 -6.39629 7.15625e-015 -5.56597e-015 -9.54166e-015 -8.50373 36.2009 4.68864 2.44588e-006 1.71546e-006 3 -8.03001 -4.95142 -0.69765 176.015 -8.30352 2.30119 180 7.01491e-015 178.701 179.69 20.8772 179.634 -1.26223e-006 2.81689e-007 1.37677 -45.3506 81.0369 47.7697 8.12729 28.2303 0.159386 -173.676 20.0544 2.24689 4.54188e-006 -4.6773e-006 -0.843981 -6.63563 -17.4706 -0.80436 -4.23865e-006 -5.89771e-006 -0.0978747 17.9557 70.6528 -21.797 -8.13649 25.2327 3.48773 
58.035 92.0288 17.8274 2.5175 -0.668619 48.2436 -0.719291 -2.79899 0.52875 -1.41508 -1.60233 1.11615 -1.42828 0.0423208 1.13973 -1.81072 25.0528 11.2291 -2.27121 -9.13199 10.0965 54.3223 -9.84952 -6.09774 48.2272 62.7732 73.5449 -1.69916e-007 -2.6281e-005 3.16789e-009 169.75 47.6272 -155.594 -5.92635e-006 -7.81362e-006 -3.00368 8.02968 -4.95143 0.697493 -58.4962 -3.45456 2.10942 -81.292 33.1702 -6.23914 1.11319e-014 1.98785e-015 -3.18055e-015 -8.63607 36.4079 4.77302 2.44588e-006 1.71546e-006 3 -8.03001 -4.95142 -0.69765 175.958 -8.38082 2.29465 180 7.0149e-015 178.699 179.776 20.9093 179.614 -1.26223e-006 2.81689e-007 1.38712 -44.8542 80.9596 47.2754 8.12171 28.3688 0.244738 -173.843 20.0209 2.3531 4.54188e-006 -4.6773e-006 -0.851618 -6.65092 -17.449 -0.809161 -4.23865e-006 -5.89771e-006 -0.0984248 18.0955 70.7068 -21.8568 -8.13649 25.2327 3.48773 
58.154 92.0358 17.8449 2.55636 -0.607705 48.4616 -0.728674 -2.80035 0.535925 -1.43352 -1.60523 1.13125 -1.44689 0.0394023 1.15513 -2.3969 24.8548 11.2935 -1.67706 -9.09904 10.0563 53.8746 -9.79496 -6.05777 48.3213 63.5313 73.8921 -1.69916e-007 -2.6281e-005 3.16788e-009 169.652 47.5459 -155.376 -5.92635e-006 -7.81362e-006 -3.00368 8.02968 -4.95143 0.697493 -59.0688 -3.44291 2.1497 -81.2412 33.0686 -6.08135 -5.1684e-015 -1.03368e-014 -9.54166e-015 -8.76868 36.6124 4.85793 2.44588e-006 1.71546e-006 3 -8.03001 -4.95142 -0.69765 175.898 -8.45657 2.28857 180 7.0149e-015 178.698 179.864 20.9443 179.594 -1.26223e-006 2.81689e-007 1.39741 -44.3322 80.8757 46.7543 8.11548 28.515 0.332328 -174.011 19.9804 2.46194 4.54188e-006 -4.6773e-006 -0.859269 -6.66398 -17.4154 -0.813005 -4.23865e-006 -5.89771e-006 -0.0989936 18.2323 70.7579 -21.9144 -8.13649 25.2327 3.48773 
58.3204 92.1686 17.8776 2.59459 -0.546646 48.6798 -0.737874 -2.80103 0.542902 -1.45161 -1.6068 1.14594 -1.46516 0.037828 1.17013 -2.9912 24.6446 11.3599 -1.07543 -9.05899 10.0181 53.4227 -9.73777 -6.01562 48.3695 64.2891 74.3335 -1.69916e-007 -2.6281e-005 3.16788e-009 169.545 47.4517 -155.121 -5.92635e-006 -7.81362e-006 -3.00368 8.02968 -4.95143 0.697493 -59.6408 -3.43443 2.19213 -81.1908 32.9676 -5.92315 7.95139e-016 6.75868e-015 -9.54166e-015 -8.90113 36.8137 4.94302 2.44588e-006 1.71546e-006 3 -8.03001 -4.95142 -0.69765 175.835 -8.53067 2.28341 180 7.01489e-015 178.696 179.953 20.9815 179.573 -1.26223e-006 2.81689e-007 1.40758 -43.7929 80.7863 46.215 8.1086 28.6676 0.421439 -174.18 19.9342 2.57314 4.54188e-006 -4.6773e-006 -0.866939 -6.675 -17.3721 -0.816018 -4.23865e-006 -5.89771e-006 -0.099588 18.3663 70.8066 -21.9701 -8.13649 25.2327 3.48773 
58.4451 92.1561 17.8869 2.63215 -0.485306 48.898 -0.746889 -2.80101 0.549748 -1.46935 -1.60693 1.16036 -1.48306 0.0376807 1.18484 -3.59255 24.4215 11.4271 -0.467119 -9.01138 9.98107 52.9668 -9.67812 -5.97127 48.3689 65.0455 74.8612 -1.69916e-007 -2.6281e-005 3.16788e-009 169.43 47.3491 -154.837 -5.92635e-006 -7.81362e-006 -3.00368 8.02968 -4.95143 0.697493 -60.2111 -3.4289 2.23638 -81.1417 32.8675 -5.76478 -1.19271e-014 -7.95139e-015 -0 -9.03298 37.0112 5.02796 2.44588e-006 1.71546e-006 3 -8.03001 -4.95142 -0.69765 175.769 -8.60303 2.27965 180 7.01489e-015 178.694 -179.959 21.0206 179.551 -1.26223e-006 2.81689e-007 1.41753 -43.244 80.6923 45.6653 8.10109 28.8253 0.511346 -174.35 19.8838 2.68643 4.54188e-006 -4.6773e-006 -0.87463 -6.68418 -17.3213 -0.818326 -4.23865e-006 -5.89771e-006 -0.100215 18.4979 70.8532 -22.0244 -8.13649 25.2327 3.48773 
58.5773 92.1935 17.9102 2.66903 -0.423547 49.1158 -0.755718 -2.80022 0.556532 -1.48672 -1.60556 1.17465 -1.50061 0.0390433 1.19942 -4.19992 24.185 11.4934 0.147108 -8.95578 9.94432 52.5073 -9.61616 -5.92465 48.3178 65.7991 75.4662 -1.69916e-007 -2.6281e-005 3.16789e-009 169.309 47.2428 -154.534 -5.92635e-006 -7.81362e-006 -3.00368 8.02968 -4.95143 0.697493 -60.7788 -3.4261 2.28211 -81.095 32.7686 -5.60647 4.77083e-015 2.38542e-015 -0 -9.16379 37.2042 5.11241 2.44588e-006 1.71546e-006 3 -8.03001 -4.95142 -0.69765 175.701 -8.67356 2.27776 180 7.01488e-015 178.692 -179.871 21.0612 179.53 -1.26223e-006 2.81689e-007 1.42719 -42.6926 80.5949 45.1126 8.09298 28.9869 0.601318 -174.52 19.8303 2.80155 4.54188e-006 -4.6773e-006 -0.88235 -6.69173 -17.2651 -0.820056 -4.23865e-006 -5.89771e-006 -0.10088 18.6275 70.8983 -22.0775 -8.13649 25.2327 3.48773 
58.7007 92.2327 17.9191 2.7052 -0.361234 49.3327 -0.764361 -2.79865 0.56332 -1.50373 -1.6026 1.18895 -1.51779 0.0419988 1.214 -4.81225 23.9342 11.5576 0.766472 -8.89173 9.90712 52.0443 -9.55206 -5.87573 48.2157 66.5488 76.1379 -1.69916e-007 -2.6281e-005 3.16788e-009 169.186 47.1375 -154.22 -5.92635e-006 -7.81362e-006 -3.00368 8.02968 -4.95143 0.697493 -61.3427 -3.42583 2.32899 -81.0517 32.6714 -5.44845 3.97569e-015 -2.38542e-015 -6.36111e-015 -9.2931 37.3922 5.196 2.44588e-006 1.71546e-006 3 -8.03001 -4.95142 -0.69765 175.63 -8.74218 2.27821 180 7.01488e-015 178.69 -179.786 21.1026 179.509 -1.26223e-006 2.81689e-007 1.43648 -42.1455 80.4952 44.5638 8.08434 29.1512 0.690613 -174.692 19.7753 2.91824 4.54188e-006 -4.6773e-006 -0.890101 -6.69785 -17.2059 -0.821334 -4.23865e-006 -5.89771e-006 -0.101592 18.7555 70.9423 -22.13 -8.13649 25.2327 3.48773 
